# xmcd
#
# Track frame offsets:
#	150
#	18046
#	31244
#	48583
#	67621
#	86519
#	112581
#	134078
#	146143
#	171904
#	196569
#	214470
#
# Disc length: 3165 seconds
#
# Revision: 2
# Processed by: cddbd v1.5.2PL0 Copyright (c) Steve Scherf et al.
# Submitted via: EasyCDDAExtractor 10.1.0.1
#
DISCID=9d0c5b0c
DTITLE=Roland Tchakounté - Ndoni
DYEAR=2012
DGENRE=Blues
TTITLE0=Fang am
TTITLE1=Kemen
TTITLE2=Farafina
TTITLE3=Bouden ndjabou
TTITLE4=Mbak Tchann yogsou kidi
TTITLE5=Smile
TTITLE6=Adendja
TTITLE7=Lama
TTITLE8=Chuboula
TTITLE9=Me den mbwoga
TTITLE10=If you try black woman
TTITLE11=Anetchana
EXTD=YEAR: 2012
EXTT0=
EXTT1=
EXTT2=
EXTT3=
EXTT4=
EXTT5=
EXTT6=
EXTT7=
EXTT8=
EXTT9=
EXTT10=
EXTT11=
PLAYORDER=
